<?xml version="1.0" standalone="no"?>
<!DOCTYPE svg PUBLIC "-//W3C//DTD SVG 20010904//EN"
 "http://www.w3.org/TR/2001/REC-SVG-20010904/DTD/svg10.dtd">
<svg version="1.0" xmlns="http://www.w3.org/2000/svg"
 width="150.000000pt" height="150.000000pt" viewBox="0 0 150.000000 150.000000"
 preserveAspectRatio="xMidYMid meet">

<g transform="translate(0.000000,150.000000) scale(0.100000,-0.100000)"
fill="#000000" stroke="none">
<path d="M605 1486 c-154 -36 -269 -98 -378 -204 -87 -85 -147 -182 -189 -302
-30 -89 -32 -103 -32 -230 0 -127 2 -141 32 -230 43 -124 103 -218 194 -306
91 -88 168 -134 288 -175 574 -192 1133 367 941 941 -41 120 -87 197 -175 288
-139 144 -312 222 -511 228 -71 2 -132 -1 -170 -10z m328 -22 c256 -65 462
-271 533 -534 24 -89 24 -271 0 -360 -58 -213 -200 -388 -391 -480 -118 -57
-190 -73 -325 -73 -135 0 -207 16 -325 73 -191 92 -333 267 -391 480 -24 89
-24 271 0 360 79 292 311 502 611 551 68 11 213 3 288 -17z"/>
<path d="M437 1153 c-4 -3 -7 -24 -7 -45 0 -37 -1 -38 -35 -38 -28 0 -35 -4
-35 -20 0 -16 -7 -20 -35 -20 -32 0 -35 -2 -35 -29 0 -26 4 -30 33 -33 24 -2
33 -8 35 -25 3 -19 10 -23 37 -23 l33 0 1 -240 0 -240 -29 0 -30 0 -1 73 c-1
45 -4 63 -8 47 -5 -19 -14 -26 -39 -28 -28 -3 -32 -7 -32 -33 0 -27 3 -29 35
-29 28 0 35 -4 35 -20 0 -16 7 -20 35 -20 34 0 35 -1 35 -39 0 -22 3 -42 8
-44 4 -3 7 179 7 404 0 225 0 409 -1 409 0 0 -4 -3 -7 -7z m-7 -158 l0 -65
-30 0 -30 0 0 65 0 65 30 0 30 0 0 -65z"/>
<path d="M1059 752 c3 -224 6 -388 8 -364 4 41 5 42 39 42 27 0 34 4 34 20 0
16 7 20 35 20 32 0 35 2 35 29 0 26 -4 30 -32 33 -25 2 -34 9 -39 28 -4 16 -7
-2 -8 -47 l-1 -73 -30 0 -29 0 0 240 1 240 33 0 c27 0 34 4 37 23 2 17 11 23
36 25 28 3 32 7 32 33 0 27 -3 29 -35 29 -28 0 -35 4 -35 20 0 16 -7 20 -35
20 -34 0 -35 1 -35 39 0 22 -3 42 -7 44 -5 3 -6 -178 -4 -401z m71 243 l0 -65
-30 0 -30 0 0 65 0 65 30 0 30 0 0 -65z"/>
<path d="M714 961 c-132 -33 -197 -181 -130 -296 98 -166 366 -108 366 80 l0
35 -110 0 -110 0 0 -30 0 -30 70 0 c79 0 84 -7 42 -50 -39 -39 -91 -48 -138
-23 -98 50 -97 191 2 234 50 23 93 17 130 -17 25 -24 26 -24 55 -7 16 10 29
20 29 24 0 11 -61 60 -86 69 -37 15 -88 19 -120 11z"/>
<path d="M360 800 c0 -16 -7 -20 -35 -20 -32 0 -35 -2 -35 -30 0 -28 3 -30 34
-30 28 0 35 -4 39 -22 2 -13 5 10 6 50 0 39 -1 72 -4 72 -3 0 -5 -9 -5 -20z"/>
<path d="M1133 750 c0 -41 2 -65 4 -52 4 18 11 22 39 22 31 0 34 2 34 30 0 28
-3 30 -34 30 -28 0 -35 4 -39 23 -2 12 -4 -12 -4 -53z"/>
</g>
</svg>
